<?xml version="1.0" encoding="UTF-8"?>
<svg version="1.1" xmlns="http://www.w3.org/2000/svg" width="534" height="221">
<path d="M0 0 C6.38852058 6.61668203 5.9641195 17.7275362 6.05859375 26.41748047 C5.64649167 44.58087962 0.34036371 62.13567193 -6 79 C-4.02 79.33 -2.04 79.66 0 80 C0.09361816 79.41444336 0.18723633 78.82888672 0.28369141 78.22558594 C1.5311413 71.20850839 3.70623887 64.84576387 6.375 58.25 C6.81126709 57.16887939 7.24753418 56.08775879 7.69702148 54.97387695 C24.27893289 14.92650022 24.27893289 14.92650022 38 8 C41.0625 7.5 41.0625 7.5 44 8 C49.27099866 13.12458203 50.26411444 18.37944599 50.38061523 25.44970703 C50.35064296 40.73035533 49.03811777 55.59440162 39 68 C37.2795177 69.18969521 35.52815857 70.33587115 33.75 71.4375 C29.29060242 74.73121919 28.18824349 77.62346711 27.23803711 82.88232422 C23.54489107 107.73394673 23.54489107 107.73394673 30 131 C38.56342463 129.80200795 43.81869168 122.43897497 48.86328125 115.9375 C53.84162656 109.09341284 58.45327772 101.97801968 63.015625 94.8515625 C63.60859375 93.95179688 64.2015625 93.05203125 64.8125 92.125 C65.31394531 91.34382813 65.81539062 90.56265625 66.33203125 89.7578125 C68.4379356 87.53847537 70.00977625 87.3147604 73 87 C75.20914 90.31371 75.22481553 91.3446021 75.125 95.1875 C75.10695312 96.08855469 75.08890625 96.98960937 75.0703125 97.91796875 C75.04710937 98.60503906 75.02390625 99.29210937 75 100 C81.58958547 92.91405615 87.70069991 85.59143098 92.125 76.9375 C94 74 94 74 96.75 73.0625 C97.4925 73.041875 98.235 73.02125 99 73 C100.36884358 77.51718381 99.47075246 80.58774263 98 85 C98.53882813 84.50113281 99.07765625 84.00226563 99.6328125 83.48828125 C106.01289597 77.91820838 112.7750442 73.5384298 120.0625 69.25 C121.44429443 68.43656128 121.44429443 68.43656128 122.85400391 67.60668945 C145.92331718 54.22862266 170.80325598 46.22482505 196.57080078 39.85253906 C199.63642969 39.09038783 202.69214696 38.29962071 205.74609375 37.4921875 C225.65737045 32.28250291 245.85357394 28.18645325 266 24 C266.91467041 23.80877563 267.82934082 23.61755127 268.77172852 23.42053223 C271.50815594 22.85027421 274.24599042 22.28733852 276.984375 21.7265625 C277.81624329 21.55264984 278.64811157 21.37873718 279.50518799 21.19955444 C283.39655125 20.41113163 287.00490142 19.77737852 291 20 C291 20.66 291 21.32 291 22 C281.26132745 24.34487934 271.47271511 26.32214948 261.64385986 28.24328613 C170.79836159 43.30859971 170.79836159 43.30859971 97.6328125 93.56640625 C96 95 96 95 93.3046875 95.21484375 C92.54414063 95.14394531 91.78359375 95.07304687 91 95 C90.34 93.68 89.68 92.36 89 91 C88.39671875 91.83144531 87.7934375 92.66289062 87.171875 93.51953125 C86.36488676 94.6174106 85.55757813 95.71505449 84.75 96.8125 C84.35425781 97.35970703 83.95851562 97.90691406 83.55078125 98.47070312 C81.31472125 101.49488263 79.24477581 104.05313452 76 106 C73.25 106.1875 73.25 106.1875 71 106 C68.74303272 101.48606544 68.91907105 97.93666594 69 93 C68.58226318 93.64960693 68.16452637 94.29921387 67.73413086 94.96850586 C65.80626476 97.96099458 63.87193081 100.94925109 61.9375 103.9375 C61.28072266 104.95908203 60.62394531 105.98066406 59.94726562 107.03320312 C55.90481339 113.26614672 51.67525655 119.22683871 47 125 C46.17326782 126.03024292 46.17326782 126.03024292 45.32983398 127.08129883 C41.72095977 131.53077002 38.60750945 134.30821178 32.9375 135.8125 C29.7133129 136.01829918 28.67763555 135.68775427 26 134 C21.92204425 128.68007691 21.22811709 122.48446297 20.75 116 C20.63398438 114.69482422 20.63398438 114.69482422 20.515625 113.36328125 C20.3292628 111.24341124 20.1625594 109.12182802 20 107 C19.1646875 108.06541016 19.1646875 108.06541016 18.3125 109.15234375 C11.29964722 117.59856678 11.29964722 117.59856678 6.6875 118.25 C1.20496397 117.87830264 1.20496397 117.87830264 -1 116 C-5.62299178 108.37491726 -4.98257203 99.04274039 -3.3203125 90.51171875 C-2.62788001 87.96950234 -1.88330326 85.48166155 -1 83 C-3.64 83 -6.28 83 -9 83 C-9.26167969 83.87527344 -9.52335937 84.75054687 -9.79296875 85.65234375 C-12.44580209 93.00987828 -17.12705271 99.8432658 -23 105 C-23.54914063 105.54011719 -24.09828125 106.08023438 -24.6640625 106.63671875 C-33.72466553 115.23124137 -45.09339806 119.12398539 -56.91015625 122.41650391 C-58.28820286 122.80126225 -59.6633572 123.19655618 -61.03515625 123.60302734 C-74.87189911 127.6720695 -92.1579413 130.60647977 -105.55078125 123.875 C-106.02902344 123.58625 -106.50726563 123.2975 -107 123 C-107 122.01 -107 121.02 -107 120 C-106.38898438 120.0721875 -105.77796875 120.144375 -105.1484375 120.21875 C-80.14896295 122.75390798 -53.5967854 121.52921092 -31.98046875 107.296875 C-30 106 -30 106 -27.86328125 105.078125 C-25.49814724 103.70961979 -25.10499695 102.46602979 -24 100 C-22.33985685 97.78783881 -20.59885915 95.65542851 -18.8515625 93.51171875 C-16.6067522 90.4665436 -14.83048593 87.31019592 -13 84 C-13.81976318 83.95512451 -14.63952637 83.91024902 -15.48413086 83.86401367 C-68.54887885 80.87523675 -68.54887885 80.87523675 -80 69 C-85.28069548 62.24070978 -86.41955044 55.17492192 -85.84765625 46.7578125 C-83.57609471 32.82216533 -73.29964129 20.41475957 -62.25 12.25 C-47.23841993 2.4608573 -16.37548282 -13.9790707 0 0 Z M-70 24 C-77.18169498 32.6692447 -82.52828213 41.15712262 -82.265625 52.7578125 C-81.5077241 59.15538777 -79.15097668 64.49912931 -74.3125 68.8125 C-56.8545064 80.85738195 -30.29089931 80.59420204 -10 80 C-2.93272904 61.91493302 2.14289721 44.62214622 2.25 25.0625 C2.270625 24.12470703 2.29125 23.18691406 2.3125 22.22070312 C2.35248387 15.02860525 1.61196394 8.26495492 -3 2.5 C-21.18230159 -11.13672619 -57.35144973 10.81496962 -70 24 Z M41 11 C30.69312107 16.60736937 25.32754673 27.96922842 20 38 C19.67 38.61617187 19.34 39.23234375 19 39.8671875 C14.7075198 47.94912288 10.97863473 56.19812721 7.5625 64.6875 C7.04913086 65.96197998 7.04913086 65.96197998 6.52539062 67.26220703 C4.99667497 71.14704403 3.60113142 74.84287989 3 79 C8.23115393 79.21544006 12.43785303 78.52370193 17.4375 77 C20.6859375 76.01 20.6859375 76.01 24 75 C24.99 68.73 25.98 62.46 27 56 C28.485 55.505 28.485 55.505 30 55 C30 59.95 30 64.9 30 70 C37.56509043 66.21745479 41.2923915 59.83401392 44 52 C46.56112821 44.22867962 47.29511025 36.69128229 47.375 28.5625 C47.38885742 27.71002686 47.40271484 26.85755371 47.41699219 25.97924805 C47.3791453 20.93017507 46.85693624 17.33905574 44 13 C43.01 12.34 42.02 11.68 41 11 Z M15.3125 79.4375 C10.8696445 80.57093606 6.55252984 81.48266706 2 82 C-2.22653091 96.95407804 -2.22653091 96.95407804 0.5 111.8125 C0.995 112.534375 1.49 113.25625 2 114 C5.88508067 114.08093918 7.99104383 113.80335755 11.0703125 111.3515625 C20.29447979 101.63637489 22.78651979 91.11932917 23 78 C20.28537803 78 17.93844939 78.74888843 15.3125 79.4375 Z " fill="#000000" transform="translate(140,55)"/>
</svg>
